<svg xmlns="http://www.w3.org/2000/svg" xmlns:xlink="http://www.w3.org/1999/xlink" xmlns:lucid="lucid" width="730.89" height="343.6"><g transform="translate(-2780 -900)" lucid:page-tab-id="0_0"><path d="M0-1000h5000v3000H0z" fill="#fff"/><path d="M3162.87 916a6 6 0 0 1 6-6h134.5a6 6 0 0 1 6 6v28a6 6 0 0 1-6 6h-134.5a6 6 0 0 1-6-6z" stroke="#282c33" stroke-width="2" fill="#c3f7c8"/><use xlink:href="#a" transform="matrix(1,0,0,1,3167.8674852721983,915) translate(28.376543209876544 19.65277777777778)"/><use xlink:href="#b" transform="matrix(1,0,0,1,3167.8674852721983,915) translate(59.24074074074074 19.65277777777778)"/><use xlink:href="#c" transform="matrix(1,0,0,1,3167.8674852721983,915) translate(90.10493827160494 19.65277777777778)"/><path d="M2924.8 1016a6 6 0 0 1 6-6h134.5a6 6 0 0 1 6 6v28a6 6 0 0 1-6 6h-134.5a6 6 0 0 1-6-6z" stroke="#282c33" stroke-width="2" fill="#c3f7c8"/><use xlink:href="#d" transform="matrix(1,0,0,1,2929.809425793172,1015) translate(12.944444444444443 19.65277777777778)"/><use xlink:href="#e" transform="matrix(1,0,0,1,2929.809425793172,1015) translate(43.80864197530864 19.65277777777778)"/><use xlink:href="#f" transform="matrix(1,0,0,1,2929.809425793172,1015) translate(68.5 19.65277777777778)"/><use xlink:href="#g" transform="matrix(1,0,0,1,2929.809425793172,1015) translate(93.19135802469135 19.65277777777778)"/><use xlink:href="#c" transform="matrix(1,0,0,1,2929.809425793172,1015) translate(105.53703703703704 19.65277777777778)"/><path d="M3089.62 1016a6 6 0 0 1 6-6h134.5a6 6 0 0 1 6 6v28a6 6 0 0 1-6 6h-134.5a6 6 0 0 1-6-6z" stroke="#282c33" stroke-width="2" fill="#ffd9d9"/><use xlink:href="#a" transform="matrix(1,0,0,1,3094.618851586344,1015) translate(12.944444444444443 19.65277777777778)"/><use xlink:href="#h" transform="matrix(1,0,0,1,3094.618851586344,1015) translate(43.80864197530864 19.65277777777778)"/><use xlink:href="#f" transform="matrix(1,0,0,1,3094.618851586344,1015) translate(68.5 19.65277777777778)"/><use xlink:href="#g" transform="matrix(1,0,0,1,3094.618851586344,1015) translate(93.19135802469135 19.65277777777778)"/><use xlink:href="#c" transform="matrix(1,0,0,1,3094.618851586344,1015) translate(105.53703703703704 19.65277777777778)"/><path d="M3346 1016a6 6 0 0 1 6-6h134.5a6 6 0 0 1 6 6v28a6 6 0 0 1-6 6H3352a6 6 0 0 1-6-6z" stroke="#282c33" stroke-width="2" fill="#fff3d9"/><use xlink:href="#a" transform="matrix(1,0,0,1,3350.989069486834,1015) translate(25.29012345679012 19.65277777777778)"/><use xlink:href="#f" transform="matrix(1,0,0,1,3350.989069486834,1015) translate(56.154320987654316 19.65277777777778)"/><use xlink:href="#g" transform="matrix(1,0,0,1,3350.989069486834,1015) translate(80.84567901234567 19.65277777777778)"/><use xlink:href="#i" transform="matrix(1,0,0,1,3350.989069486834,1015) translate(93.19135802469137 19.65277777777778)"/><path d="M3091.27 1116a6 6 0 0 1 6-6h134.5a6 6 0 0 1 6 6v28a6 6 0 0 1-6 6h-134.5a6 6 0 0 1-6-6z" stroke="#282c33" stroke-width="2" fill="#ffd9d9"/><use xlink:href="#d" transform="matrix(1,0,0,1,3096.266666666666,1115) translate(12.944444444444443 19.65277777777778)"/><use xlink:href="#h" transform="matrix(1,0,0,1,3096.266666666666,1115) translate(43.80864197530864 19.65277777777778)"/><use xlink:href="#f" transform="matrix(1,0,0,1,3096.266666666666,1115) translate(68.5 19.65277777777778)"/><use xlink:href="#g" transform="matrix(1,0,0,1,3096.266666666666,1115) translate(93.19135802469135 19.65277777777778)"/><use xlink:href="#c" transform="matrix(1,0,0,1,3096.266666666666,1115) translate(105.53703703703704 19.65277777777778)"/><path d="M3256.08 1116a6 6 0 0 1 6-6h61.24a6 6 0 0 1 6 6v28a6 6 0 0 1-6 6h-61.24a6 6 0 0 1-6-6z" stroke="#282c33" stroke-width="2" fill="#fff3d9"/><use xlink:href="#j" transform="matrix(1,0,0,1,3261.0760924598385,1115) translate(22.74074074074074 19.65277777777778)"/><path d="M3347.64 1116a6 6 0 0 1 6-6h134.5a6 6 0 0 1 6 6v28a6 6 0 0 1-6 6h-134.5a6 6 0 0 1-6-6z" stroke="#282c33" stroke-width="2" fill="#d7faf5"/><use xlink:href="#d" transform="matrix(1,0,0,1,3352.6368845671564,1115) translate(0.5987654320987588 19.65277777777778)"/><use xlink:href="#e" transform="matrix(1,0,0,1,3352.6368845671564,1115) translate(31.462962962962955 19.65277777777778)"/><use xlink:href="#h" transform="matrix(1,0,0,1,3352.6368845671564,1115) translate(56.154320987654316 19.65277777777778)"/><use xlink:href="#f" transform="matrix(1,0,0,1,3352.6368845671564,1115) translate(80.84567901234567 19.65277777777778)"/><use xlink:href="#g" transform="matrix(1,0,0,1,3352.6368845671564,1115) translate(105.53703703703702 19.65277777777778)"/><use xlink:href="#i" transform="matrix(1,0,0,1,3352.6368845671564,1115) translate(117.88271604938271 19.65277777777778)"/><path d="M3185.1 951.44L3082.7 1001" stroke="#5e5e5e" stroke-width="2" fill="none"/><path d="M3185.5 952.32l-.63-1.32h3.37z" stroke="#5e5e5e" stroke-width=".05" fill="#5e5e5e"/><path d="M3068.96 1007.64l10.82-10.38 4.04 8.34z" stroke="#5e5e5e" stroke-width="2" fill="#5e5e5e"/><path d="M3220.14 951.8l-30.96 42.27" stroke="#5e5e5e" stroke-width="2" fill="none"/><path d="M3220.9 952.4l-1.56-1.15.18-.25h2.42z" stroke="#5e5e5e" stroke-width=".05" fill="#5e5e5e"/><path d="M3180.16 1006.4l4.7-14.26 7.47 5.48z" stroke="#5e5e5e" stroke-width="2" fill="#5e5e5e"/><path d="M3292.64 951.74l41.88 45.7" stroke="#5e5e5e" stroke-width="2" fill="none"/><path d="M3293.38 951.1l-1.44 1.3-1.3-1.4h2.65z" stroke="#5e5e5e" stroke-width=".05" fill="#5e5e5e"/><path d="M3344.83 1008.68l-13.05-7.38 6.83-6.27z" stroke="#5e5e5e" stroke-width="2" fill="#5e5e5e"/><path d="M3033.87 1051.52l79.83 47.95" stroke="#5e5e5e" stroke-width="2" fill="none"/><path d="M3033.4 1052.36l-2.28-1.36h3.1z" stroke="#5e5e5e" stroke-width=".05" fill="#5e5e5e"/><path d="M3126.78 1107.33l-14.6-3.37 4.76-7.95z" stroke="#5e5e5e" stroke-width="2" fill="#5e5e5e"/><path d="M3060.88 1051.32l176.68 59.96" stroke="#5e5e5e" stroke-width="2" fill="none"/><path d="M3060.6 1052.25l-3.7-1.25h4.12z" stroke="#5e5e5e" stroke-width=".05" fill="#5e5e5e"/><path d="M3252 1116.2l-15-.2 3-8.78z" stroke="#5e5e5e" stroke-width="2" fill="#5e5e5e"/><path d="M3072.4 1047.6l257.1 60.8" stroke="#5e5e5e" stroke-width="2" fill="none"/><path d="M3072.66 1046.64l-.45 1.9-.98-.24.22-.94.1-.18.3-.73z" stroke="#5e5e5e" stroke-width=".05" fill="#5e5e5e"/><path d="M3344.36 1111.9l-14.95 1.23 2.14-9.02z" stroke="#5e5e5e" stroke-width="2" fill="#5e5e5e"/><path d="M3254.43 1016a6 6 0 0 1 6-6h61.25a6 6 0 0 1 6 6v28a6 6 0 0 1-6 6h-61.25a6 6 0 0 1-6-6z" stroke="#282c33" stroke-width="2" fill="#fff3d9"/><use xlink:href="#k" transform="matrix(1,0,0,1,3259.428277379516,1015) translate(22.74074074074074 19.65277777777778)"/><path d="M3248.13 951.88l22.48 40.9" stroke="#5e5e5e" stroke-width="2" fill="none"/><path d="M3249 951.43l-1.7.94-.76-1.37h2.22z" stroke="#5e5e5e" stroke-width=".05" fill="#5e5e5e"/><path d="M3277.96 1006.16l-10.93-10.27 8.12-4.47z" stroke="#5e5e5e" stroke-width="2" fill="#5e5e5e"/><path d="M2780 906a6 6 0 0 1 6-6h89.7a6 6 0 0 1 6 6v48a6 6 0 0 1-6 6H2786a6 6 0 0 1-6-6z" stroke="#000" stroke-opacity="0" stroke-width="2" fill="#fff" fill-opacity="0"/><use xlink:href="#l" transform="matrix(1,0,0,1,2785,905) translate(10.228395061728392 30.27777777777778)"/><use xlink:href="#m" transform="matrix(1,0,0,1,2785,905) translate(69.42592592592592 30.27777777777778)"/><path d="M2780 1006a6 6 0 0 1 6-6h89.7a6 6 0 0 1 6 6v48a6 6 0 0 1-6 6H2786a6 6 0 0 1-6-6z" stroke="#000" stroke-opacity="0" stroke-width="2" fill="#fff" fill-opacity="0"/><use xlink:href="#l" transform="matrix(1,0,0,1,2785,1005) translate(10.228395061728392 30.27777777777778)"/><use xlink:href="#n" transform="matrix(1,0,0,1,2785,1005) translate(69.42592592592592 30.27777777777778)"/><path d="M2780 1106a6 6 0 0 1 6-6h89.7a6 6 0 0 1 6 6v48a6 6 0 0 1-6 6H2786a6 6 0 0 1-6-6z" stroke="#000" stroke-opacity="0" stroke-width="2" fill="#fff" fill-opacity="0"/><use xlink:href="#l" transform="matrix(1,0,0,1,2785,1105) translate(10.228395061728392 30.27777777777778)"/><use xlink:href="#o" transform="matrix(1,0,0,1,2785,1105) translate(69.42592592592592 30.27777777777778)"/><path d="M2862.8 956a6 6 0 0 1 6-6h148a6 6 0 0 1 6 6v14.4a6 6 0 0 1-6 6h-148a6 6 0 0 1-6-6z" stroke="#000" stroke-opacity="0" stroke-width="2" fill-opacity="0"/><use xlink:href="#p" transform="matrix(1,0,0,1,2867.787878787879,955) translate(29.382716049382715 17.77777777777778)"/><path d="M2954.35 977.17l1.43 1.73m5.7 6.9l2.86 3.45m5.7 6.9l2.87 3.45m5.72 6.9l1.43 1.73" stroke="#5e5e5e" stroke-width="2" fill="none"/><path d="M2955.1 976.57l-1.5 1.24-1.16-1.4h2.53zM2981.95 1009h-2.53l-.14-.17 1.5-1.24z" stroke="#5e5e5e" stroke-width=".05" fill="#5e5e5e"/><path d="M3064.17 1206.4a6 6 0 0 1 6-6h168a6 6 0 0 1 6 6v14.4a6 6 0 0 1-6 6h-168a6 6 0 0 1-6-6z" stroke="#000" stroke-opacity="0" stroke-width="2" fill-opacity="0"/><use xlink:href="#l" transform="matrix(1,0,0,1,3069.1698273397797,1205.3999999999996) translate(3.055555555555543 17.77777777777778)"/><use xlink:href="#q" transform="matrix(1,0,0,1,3069.1698273397797,1205.3999999999996) translate(62.253086419753075 17.77777777777778)"/><path d="M2780 1189.6a6 6 0 0 1 6-6h89.7a6 6 0 0 1 6 6v48a6 6 0 0 1-6 6H2786a6 6 0 0 1-6-6z" stroke="#000" stroke-opacity="0" stroke-width="2" fill="#fff" fill-opacity="0"/><use xlink:href="#l" transform="matrix(1,0,0,1,2785,1188.6000000000001) translate(10.228395061728392 30.27777777777778)"/><use xlink:href="#r" transform="matrix(1,0,0,1,2785,1188.6000000000001) translate(69.42592592592592 30.27777777777778)"/><path d="M3063.17 1213.6h-2m-8.03 0h-4m-8.03 0h-4m-8.02 0h-4m-8.03 0h-4m-8.04 0h-4m-8.02 0h-4m-8.03 0h-4m-8.03 0h-4m-8.03 0h-4.03m-8.02 0h-4m-8.03 0h-4m-8.03 0h-4.02m-8.02 0h-4m-8.04 0h-4m-8.03 0h-2" stroke="#5e5e5e" stroke-width="2" fill="none"/><path d="M3064.17 1214.58h-1.03v-1.95h1.03zM2882.7 1214.58h-1v-1.95h1z" stroke="#5e5e5e" stroke-width=".05" fill="#5e5e5e"/><path d="M2940 906a6 6 0 0 1 6-6h168a6 6 0 0 1 6 6v14.4a6 6 0 0 1-6 6h-168a6 6 0 0 1-6-6z" stroke="#000" stroke-opacity="0" stroke-width="2" fill-opacity="0"/><g><use xlink:href="#s" transform="matrix(1,0,0,1,2945,905) translate(18.487654320987644 17.77777777777778)"/><use xlink:href="#t" transform="matrix(1,0,0,1,2945,905) translate(64.0432098765432 17.77777777777778)"/></g><path d="M3045.77 927.06l1.54 1.36m6.17 5.4l3.08 2.72m6.17 5.42l3.08 2.7m6.16 5.43l3.1 2.7m6.15 5.42l3.1 2.7m6.16 5.43l3.08 2.7m6.16 5.42l3.08 2.7m6.17 5.43l3.08 2.7m6.16 5.43l3.08 2.7m6.16 5.43l3.08 2.7m6.17 5.43l1.53 1.34" stroke="#5e5e5e" stroke-width="2" fill="none"/><path d="M3045.14 927.8l-1.6-1.4h2.84zM3140.45 1009h-2.84l1.25-1.4z" stroke="#5e5e5e" stroke-width=".05" fill="#5e5e5e"/><path d="M3330.9 1189.6a6 6 0 0 1 6-6h168a6 6 0 0 1 6 6v14.4a6 6 0 0 1-6 6h-168a6 6 0 0 1-6-6z" stroke="#000" stroke-opacity="0" stroke-width="2" fill-opacity="0"/><g><use xlink:href="#u" transform="matrix(1,0,0,1,3335.8855182530106,1188.6000000000001) translate(14.722222222222229 17.77777777777778)"/><use xlink:href="#v" transform="matrix(1,0,0,1,3335.8855182530106,1188.6000000000001) translate(71.38888888888889 17.77777777777778)"/></g><path d="M3420.9 1152v1.7m0 6.8v3.4m0 6.8v3.4m0 6.8v1.7" stroke="#5e5e5e" stroke-width="2" fill="none"/><path d="M3421.86 1152.03h-1.95V1151h1.96zM3421.86 1183.6h-1.95v-1.03h1.96z" stroke="#5e5e5e" stroke-width=".05" fill="#5e5e5e"/><path d="M2916 1116a6 6 0 0 1 6-6h88a6 6 0 0 1 6 6v14.4a6 6 0 0 1-6 6h-88a6 6 0 0 1-6-6z" stroke="#000" stroke-opacity="0" stroke-width="2" fill-opacity="0"/><g><use xlink:href="#w" transform="matrix(1,0,0,1,2921,1115) translate(13.580246913580247 17.77777777777778)"/></g><path d="M2990.5 1051.95l-.64 1.9m-2.63 7.6l-1.3 3.82m-2.62 7.62l-1.3 3.8m-2.62 7.6l-1.3 3.82m-2.63 7.6l-1.3 3.82m-2.63 7.6l-.65 1.9" stroke="#5e5e5e" stroke-width="2" fill="none"/><path d="M2991.42 1052.3l-1.84-.65.22-.65h2.07zM2971.8 1109.35l-.23.65h-2.06l.45-1.3z" stroke="#5e5e5e" stroke-width=".05" fill="#5e5e5e"/><path d="M3330.9 911a6 6 0 0 1 6-6h168a6 6 0 0 1 6 6v14.4a6 6 0 0 1-6 6h-168a6 6 0 0 1-6-6z" stroke="#000" stroke-opacity="0" stroke-width="2" fill-opacity="0"/><g><use xlink:href="#x" transform="matrix(1,0,0,1,3335.8855182530106,910) translate(-2.499999999999986 17.77777777777778)"/></g><path d="M3332.23 941a6 6 0 0 1 6-6h8a6 6 0 0 1 6 6v8a6 6 0 0 1-6 6h-8a6 6 0 0 1-6-6z" stroke="#282c33" stroke-width="2" fill="#d7faf5"/><path d="M3360 941a6 6 0 0 1 6-6h8a6 6 0 0 1 6 6v8a6 6 0 0 1-6 6h-8a6 6 0 0 1-6-6z" stroke="#282c33" stroke-width="2" fill="#fff3d9"/><path d="M3387.77 941a6 6 0 0 1 6-6h8a6 6 0 0 1 6 6v8a6 6 0 0 1-6 6h-8a6 6 0 0 1-6-6z" stroke="#282c33" stroke-width="2" fill="#ffd9d9"/><path d="M3420.9 932.4v2.5m0 10v2.5l.06.94.15.6m4.24 4.24l.6.15.95.07h2.13m8.57 0h4.28m8.57 0h4.28m8.57 0h4.28m8.57 0h4.3m8.56 0h4.3m8.56 0h2.14l.94.07.6.15m4.24 4.23l.15.6.07.95v1.96m0 7.84v3.92m0 7.84v3.9m0 7.85v3.93m0 7.84v3.92m0 7.83v3.9m0 7.85v3.92m0 7.84v3.92m0 7.84v3.92m0 7.84v3.9m0 7.85v3.93m0 7.84v3.92m0 7.83v3.9m0 7.85v3.92m0 7.84v1.96l-.07.94-.15.6m-4.23 4.24l-.6.15-.95.07h-7.87" stroke="#5e5e5e" stroke-width="2" fill="none"/><path d="M3421.86 932.43h-1.95v-1.03h1.96zM3496.16 1130.97h-1.03v-1.94h1.03z" stroke="#5e5e5e" stroke-width=".05" fill="#5e5e5e"/><defs><path fill="#282c33" d="M26 75v-336h71v23H56V52h41v23H26" id="y"/><path fill="#282c33" d="M27 0v-27h64v-190l-56 39v-29l58-41h29v221h61V0H27" id="z"/><path fill="#282c33" d="M68-38c1 34 0 65-14 84H32c9-13 17-26 17-46H33v-38h35" id="A"/><g id="a"><use transform="matrix(0.06172839506172839,0,0,0.06172839506172839,0,0)" xlink:href="#y"/><use transform="matrix(0.06172839506172839,0,0,0.06172839506172839,6.172839506172839,0)" xlink:href="#z"/><use transform="matrix(0.06172839506172839,0,0,0.06172839506172839,18.51851851851852,0)" xlink:href="#A"/></g><path fill="#282c33" d="M33 0v-38h34V0H33" id="B"/><g id="b"><use transform="matrix(0.06172839506172839,0,0,0.06172839506172839,0,0)" xlink:href="#B"/><use transform="matrix(0.06172839506172839,0,0,0.06172839506172839,6.172839506172839,0)" xlink:href="#B"/><use transform="matrix(0.06172839506172839,0,0,0.06172839506172839,12.345679012345679,0)" xlink:href="#B"/><use transform="matrix(0.06172839506172839,0,0,0.06172839506172839,18.51851851851852,0)" xlink:href="#A"/></g><path fill="#282c33" d="M3 75V52h41v-290H3v-23h71V75H3" id="C"/><g id="c"><use transform="matrix(0.06172839506172839,0,0,0.06172839506172839,0,0)" xlink:href="#z"/><use transform="matrix(0.06172839506172839,0,0,0.06172839506172839,12.345679012345679,0)" xlink:href="#C"/></g><path fill="#282c33" d="M101-251c68 0 85 55 85 127S166 4 100 4C33 4 14-52 14-124c0-73 17-127 87-127zm-1 229c47 0 54-49 54-102s-4-102-53-102c-51 0-55 48-55 102 0 53 5 102 54 102" id="D"/><g id="d"><use transform="matrix(0.06172839506172839,0,0,0.06172839506172839,0,0)" xlink:href="#y"/><use transform="matrix(0.06172839506172839,0,0,0.06172839506172839,6.172839506172839,0)" xlink:href="#D"/><use transform="matrix(0.06172839506172839,0,0,0.06172839506172839,18.51851851851852,0)" xlink:href="#A"/></g><g id="e"><use transform="matrix(0.06172839506172839,0,0,0.06172839506172839,0,0)" xlink:href="#z"/><use transform="matrix(0.06172839506172839,0,0,0.06172839506172839,12.345679012345679,0)" xlink:href="#A"/></g><g id="f"><use transform="matrix(0.06172839506172839,0,0,0.06172839506172839,0,0)" xlink:href="#B"/><use transform="matrix(0.06172839506172839,0,0,0.06172839506172839,6.172839506172839,0)" xlink:href="#B"/><use transform="matrix(0.06172839506172839,0,0,0.06172839506172839,12.345679012345679,0)" xlink:href="#B"/></g><use transform="matrix(0.06172839506172839,0,0,0.06172839506172839,0,0)" xlink:href="#A" id="g"/><g id="h"><use transform="matrix(0.06172839506172839,0,0,0.06172839506172839,0,0)" xlink:href="#D"/><use transform="matrix(0.06172839506172839,0,0,0.06172839506172839,12.345679012345679,0)" xlink:href="#A"/></g><g id="i"><use transform="matrix(0.06172839506172839,0,0,0.06172839506172839,0,0)" xlink:href="#D"/><use transform="matrix(0.06172839506172839,0,0,0.06172839506172839,12.345679012345679,0)" xlink:href="#C"/></g><g id="j"><use transform="matrix(0.06172839506172839,0,0,0.06172839506172839,0,0)" xlink:href="#B"/><use transform="matrix(0.06172839506172839,0,0,0.06172839506172839,6.172839506172839,0)" xlink:href="#B"/><use transform="matrix(0.06172839506172839,0,0,0.06172839506172839,12.345679012345679,0)" xlink:href="#B"/></g><g id="k"><use transform="matrix(0.06172839506172839,0,0,0.06172839506172839,0,0)" xlink:href="#B"/><use transform="matrix(0.06172839506172839,0,0,0.06172839506172839,6.172839506172839,0)" xlink:href="#B"/><use transform="matrix(0.06172839506172839,0,0,0.06172839506172839,12.345679012345679,0)" xlink:href="#B"/></g><path fill="#282c33" d="M30 0v-248h33v221h125V0H30" id="E"/><path fill="#282c33" d="M100-194c63 0 86 42 84 106H49c0 40 14 67 53 68 26 1 43-12 49-29l28 8c-11 28-37 45-77 45C44 4 14-33 15-96c1-61 26-98 85-98zm52 81c6-60-76-77-97-28-3 7-6 17-6 28h103" id="F"/><path fill="#282c33" d="M108 0H70L1-190h34L89-25l56-165h34" id="G"/><path fill="#282c33" d="M24 0v-261h32V0H24" id="H"/><g id="l"><use transform="matrix(0.06172839506172839,0,0,0.06172839506172839,0,0)" xlink:href="#E"/><use transform="matrix(0.06172839506172839,0,0,0.06172839506172839,12.345679012345679,0)" xlink:href="#F"/><use transform="matrix(0.06172839506172839,0,0,0.06172839506172839,24.691358024691358,0)" xlink:href="#G"/><use transform="matrix(0.06172839506172839,0,0,0.06172839506172839,35.80246913580247,0)" xlink:href="#F"/><use transform="matrix(0.06172839506172839,0,0,0.06172839506172839,48.148148148148145,0)" xlink:href="#H"/></g><use transform="matrix(0.06172839506172839,0,0,0.06172839506172839,0,0)" xlink:href="#D" id="m"/><use transform="matrix(0.06172839506172839,0,0,0.06172839506172839,0,0)" xlink:href="#z" id="n"/><path fill="#282c33" d="M101-251c82-7 93 87 43 132L82-64C71-53 59-42 53-27h129V0H18c2-99 128-94 128-182 0-28-16-43-45-43s-46 15-49 41l-32-3c6-41 34-60 81-64" id="I"/><use transform="matrix(0.06172839506172839,0,0,0.06172839506172839,0,0)" xlink:href="#I" id="o"/><path fill="#282c33" d="M185-189c-5-48-123-54-124 2 14 75 158 14 163 119 3 78-121 87-175 55-17-10-28-26-33-46l33-7c5 56 141 63 141-1 0-78-155-14-162-118-5-82 145-84 179-34 5 7 8 16 11 25" id="J"/><path fill="#282c33" d="M96-169c-40 0-48 33-48 73s9 75 48 75c24 0 41-14 43-38l32 2c-6 37-31 61-74 61-59 0-76-41-82-99-10-93 101-131 147-64 4 7 5 14 7 22l-32 3c-4-21-16-35-41-35" id="K"/><path fill="#282c33" d="M59-47c-2 24 18 29 38 22v24C64 9 27 4 27-40v-127H5v-23h24l9-43h21v43h35v23H59v120" id="L"/><path fill="#282c33" d="M24-231v-30h32v30H24zM24 0v-190h32V0H24" id="M"/><path fill="#282c33" d="M100-194c62-1 85 37 85 99 1 63-27 99-86 99S16-35 15-95c0-66 28-99 85-99zM99-20c44 1 53-31 53-75 0-43-8-75-51-75s-53 32-53 75 10 74 51 75" id="N"/><path fill="#282c33" d="M117-194c89-4 53 116 60 194h-32v-121c0-31-8-49-39-48C34-167 62-67 57 0H25l-1-190h30c1 10-1 24 2 32 11-22 29-35 61-36" id="O"/><g id="p"><use transform="matrix(0.06172839506172839,0,0,0.06172839506172839,0,0)" xlink:href="#J"/><use transform="matrix(0.06172839506172839,0,0,0.06172839506172839,14.814814814814813,0)" xlink:href="#F"/><use transform="matrix(0.06172839506172839,0,0,0.06172839506172839,27.160493827160494,0)" xlink:href="#H"/><use transform="matrix(0.06172839506172839,0,0,0.06172839506172839,32.03703703703704,0)" xlink:href="#F"/><use transform="matrix(0.06172839506172839,0,0,0.06172839506172839,44.382716049382715,0)" xlink:href="#K"/><use transform="matrix(0.06172839506172839,0,0,0.06172839506172839,55.49382716049382,0)" xlink:href="#L"/><use transform="matrix(0.06172839506172839,0,0,0.06172839506172839,61.666666666666664,0)" xlink:href="#M"/><use transform="matrix(0.06172839506172839,0,0,0.06172839506172839,66.5432098765432,0)" xlink:href="#N"/><use transform="matrix(0.06172839506172839,0,0,0.06172839506172839,78.88888888888889,0)" xlink:href="#O"/></g><path fill="#282c33" d="M233-177c-1 41-23 64-60 70L243 0h-38l-65-103H63V0H30v-248c88 3 205-21 203 71zM63-129c60-2 137 13 137-47 0-61-80-42-137-45v92" id="P"/><path fill="#282c33" d="M135-143c-3-34-86-38-87 0 15 53 115 12 119 90S17 21 10-45l28-5c4 36 97 45 98 0-10-56-113-15-118-90-4-57 82-63 122-42 12 7 21 19 24 35" id="Q"/><path fill="#282c33" d="M114-163C36-179 61-72 57 0H25l-1-190h30c1 12-1 29 2 39 6-27 23-49 58-41v29" id="R"/><g id="q"><use transform="matrix(0.06172839506172839,0,0,0.06172839506172839,0,0)" xlink:href="#P"/><use transform="matrix(0.06172839506172839,0,0,0.06172839506172839,15.987654320987653,0)" xlink:href="#F"/><use transform="matrix(0.06172839506172839,0,0,0.06172839506172839,28.333333333333332,0)" xlink:href="#Q"/><use transform="matrix(0.06172839506172839,0,0,0.06172839506172839,39.44444444444444,0)" xlink:href="#L"/><use transform="matrix(0.06172839506172839,0,0,0.06172839506172839,45.617283950617285,0)" xlink:href="#R"/><use transform="matrix(0.06172839506172839,0,0,0.06172839506172839,52.96296296296296,0)" xlink:href="#M"/><use transform="matrix(0.06172839506172839,0,0,0.06172839506172839,57.839506172839506,0)" xlink:href="#K"/><use transform="matrix(0.06172839506172839,0,0,0.06172839506172839,68.95061728395062,0)" xlink:href="#L"/><use transform="matrix(0.06172839506172839,0,0,0.06172839506172839,75.12345679012346,0)" xlink:href="#M"/><use transform="matrix(0.06172839506172839,0,0,0.06172839506172839,80,0)" xlink:href="#N"/><use transform="matrix(0.06172839506172839,0,0,0.06172839506172839,92.34567901234568,0)" xlink:href="#O"/></g><path fill="#282c33" d="M126-127c33 6 58 20 58 59 0 88-139 92-164 29-3-8-5-16-6-25l32-3c6 27 21 44 54 44 32 0 52-15 52-46 0-38-36-46-79-43v-28c39 1 72-4 72-42 0-27-17-43-46-43-28 0-47 15-49 41l-32-3c6-42 35-63 81-64 48-1 79 21 79 65 0 36-21 52-52 59" id="S"/><use transform="matrix(0.06172839506172839,0,0,0.06172839506172839,0,0)" xlink:href="#S" id="r"/><path fill="#282c33" d="M197 0v-115H63V0H30v-248h33v105h134v-105h34V0h-34" id="T"/><g id="s"><use transform="matrix(0.06172839506172839,0,0,0.06172839506172839,0,0)" xlink:href="#T"/><use transform="matrix(0.06172839506172839,0,0,0.06172839506172839,15.987654320987653,0)" xlink:href="#M"/><use transform="matrix(0.06172839506172839,0,0,0.06172839506172839,20.864197530864196,0)" xlink:href="#O"/><use transform="matrix(0.06172839506172839,0,0,0.06172839506172839,33.20987654320987,0)" xlink:href="#L"/></g><path fill="#282c33" d="M210-169c-67 3-38 105-44 169h-31v-121c0-29-5-50-35-48C34-165 62-65 56 0H25l-1-190h30c1 10-1 24 2 32 10-44 99-50 107 0 11-21 27-35 58-36 85-2 47 119 55 194h-31v-121c0-29-5-49-35-48" id="U"/><path fill="#282c33" d="M141-36C126-15 110 5 73 4 37 3 15-17 15-53c-1-64 63-63 125-63 3-35-9-54-41-54-24 1-41 7-42 31l-33-3c5-37 33-52 76-52 45 0 72 20 72 64v82c-1 20 7 32 28 27v20c-31 9-61-2-59-35zM48-53c0 20 12 33 32 33 41-3 63-29 60-74-43 2-92-5-92 41" id="V"/><g id="t"><use transform="matrix(0.06172839506172839,0,0,0.06172839506172839,0,0)" xlink:href="#P"/><use transform="matrix(0.06172839506172839,0,0,0.06172839506172839,15.987654320987653,0)" xlink:href="#F"/><use transform="matrix(0.06172839506172839,0,0,0.06172839506172839,28.333333333333332,0)" xlink:href="#U"/><use transform="matrix(0.06172839506172839,0,0,0.06172839506172839,46.79012345679012,0)" xlink:href="#N"/><use transform="matrix(0.06172839506172839,0,0,0.06172839506172839,59.1358024691358,0)" xlink:href="#G"/><use transform="matrix(0.06172839506172839,0,0,0.06172839506172839,70.24691358024691,0)" xlink:href="#V"/><use transform="matrix(0.06172839506172839,0,0,0.06172839506172839,82.5925925925926,0)" xlink:href="#H"/></g><path fill="#282c33" d="M30 0v-248h187v28H63v79h144v27H63v87h162V0H30" id="W"/><path fill="#282c33" d="M179-190L93 31C79 59 56 82 12 73V49c39 6 53-20 64-50L1-190h34L92-34l54-156h33" id="X"/><g id="u"><use transform="matrix(0.06172839506172839,0,0,0.06172839506172839,0,0)" xlink:href="#W"/><use transform="matrix(0.06172839506172839,0,0,0.06172839506172839,14.814814814814813,0)" xlink:href="#V"/><use transform="matrix(0.06172839506172839,0,0,0.06172839506172839,27.160493827160494,0)" xlink:href="#R"/><use transform="matrix(0.06172839506172839,0,0,0.06172839506172839,34.50617283950617,0)" xlink:href="#H"/><use transform="matrix(0.06172839506172839,0,0,0.06172839506172839,39.382716049382715,0)" xlink:href="#X"/></g><path fill="#282c33" d="M115-194c55 1 70 41 70 98S169 2 115 4C84 4 66-9 55-30l1 105H24l-1-265h31l2 30c10-21 28-34 59-34zm-8 174c40 0 45-34 45-75s-6-73-45-74c-42 0-51 32-51 76 0 43 10 73 51 73" id="Y"/><path fill="#282c33" d="M177-190C167-65 218 103 67 71c-23-6-38-20-44-43l32-5c15 47 100 32 89-28v-30C133-14 115 1 83 1 29 1 15-40 15-95c0-56 16-97 71-98 29-1 48 16 59 35 1-10 0-23 2-32h30zM94-22c36 0 50-32 50-73 0-42-14-75-50-75-39 0-46 34-46 75s6 73 46 73" id="Z"/><g id="v"><use transform="matrix(0.06172839506172839,0,0,0.06172839506172839,0,0)" xlink:href="#Q"/><use transform="matrix(0.06172839506172839,0,0,0.06172839506172839,11.11111111111111,0)" xlink:href="#L"/><use transform="matrix(0.06172839506172839,0,0,0.06172839506172839,17.28395061728395,0)" xlink:href="#N"/><use transform="matrix(0.06172839506172839,0,0,0.06172839506172839,29.629629629629626,0)" xlink:href="#Y"/><use transform="matrix(0.06172839506172839,0,0,0.06172839506172839,41.9753086419753,0)" xlink:href="#Y"/><use transform="matrix(0.06172839506172839,0,0,0.06172839506172839,54.32098765432098,0)" xlink:href="#M"/><use transform="matrix(0.06172839506172839,0,0,0.06172839506172839,59.197530864197525,0)" xlink:href="#O"/><use transform="matrix(0.06172839506172839,0,0,0.06172839506172839,71.5432098765432,0)" xlink:href="#Z"/></g><path fill="#282c33" d="M84 4C-5 8 30-112 23-190h32v120c0 31 7 50 39 49 72-2 45-101 50-169h31l1 190h-30c-1-10 1-25-2-33-11 22-28 36-60 37" id="aa"/><g id="w"><use transform="matrix(0.06172839506172839,0,0,0.06172839506172839,0,0)" xlink:href="#P"/><use transform="matrix(0.06172839506172839,0,0,0.06172839506172839,15.987654320987653,0)" xlink:href="#F"/><use transform="matrix(0.06172839506172839,0,0,0.06172839506172839,28.333333333333332,0)" xlink:href="#Q"/><use transform="matrix(0.06172839506172839,0,0,0.06172839506172839,39.44444444444444,0)" xlink:href="#aa"/><use transform="matrix(0.06172839506172839,0,0,0.06172839506172839,51.79012345679012,0)" xlink:href="#H"/><use transform="matrix(0.06172839506172839,0,0,0.06172839506172839,56.666666666666664,0)" xlink:href="#L"/></g><path fill="#282c33" d="M141 0L90-78 38 0H4l68-98-65-92h35l48 74 47-74h35l-64 92 68 98h-35" id="ab"/><path fill="#282c33" d="M16-82v-28h88v28H16" id="ac"/><path fill="#282c33" d="M140-251c81 0 123 46 123 126C263-46 219 4 140 4 59 4 17-45 17-125s42-126 123-126zm0 227c63 0 89-41 89-101s-29-99-89-99c-61 0-89 39-89 99S79-25 140-24" id="ad"/><path fill="#282c33" d="M85-194c31 0 48 13 60 33l-1-100h32l1 261h-30c-2-10 0-23-3-31C134-8 116 4 85 4 32 4 16-35 15-94c0-66 23-100 70-100zm9 24c-40 0-46 34-46 75 0 40 6 74 45 74 42 0 51-32 51-76 0-42-9-74-50-73" id="ae"/><g id="x"><use transform="matrix(0.06172839506172839,0,0,0.06172839506172839,0,0)" xlink:href="#W"/><use transform="matrix(0.06172839506172839,0,0,0.06172839506172839,14.814814814814813,0)" xlink:href="#ab"/><use transform="matrix(0.06172839506172839,0,0,0.06172839506172839,25.925925925925924,0)" xlink:href="#Y"/><use transform="matrix(0.06172839506172839,0,0,0.06172839506172839,38.2716049382716,0)" xlink:href="#F"/><use transform="matrix(0.06172839506172839,0,0,0.06172839506172839,50.61728395061728,0)" xlink:href="#R"/><use transform="matrix(0.06172839506172839,0,0,0.06172839506172839,57.962962962962955,0)" xlink:href="#M"/><use transform="matrix(0.06172839506172839,0,0,0.06172839506172839,62.8395061728395,0)" xlink:href="#F"/><use transform="matrix(0.06172839506172839,0,0,0.06172839506172839,75.18518518518518,0)" xlink:href="#O"/><use transform="matrix(0.06172839506172839,0,0,0.06172839506172839,87.53086419753086,0)" xlink:href="#K"/><use transform="matrix(0.06172839506172839,0,0,0.06172839506172839,98.64197530864197,0)" xlink:href="#F"/><use transform="matrix(0.06172839506172839,0,0,0.06172839506172839,110.98765432098766,0)" xlink:href="#ac"/><use transform="matrix(0.06172839506172839,0,0,0.06172839506172839,118.33333333333334,0)" xlink:href="#ad"/><use transform="matrix(0.06172839506172839,0,0,0.06172839506172839,135.6172839506173,0)" xlink:href="#R"/><use transform="matrix(0.06172839506172839,0,0,0.06172839506172839,142.96296296296296,0)" xlink:href="#ae"/><use transform="matrix(0.06172839506172839,0,0,0.06172839506172839,155.30864197530863,0)" xlink:href="#F"/><use transform="matrix(0.06172839506172839,0,0,0.06172839506172839,167.6543209876543,0)" xlink:href="#R"/></g></defs></g></svg>